<svg width="20" height="20" viewBox="0 0 20 20" fill="none" xmlns="http://www.w3.org/2000/svg">
<path fill-rule="evenodd" clip-rule="evenodd" d="M12 1C12 0.44772 12.4477 0 13 0H17C17.7957 0 18.5587 0.31607 19.1213 0.87868C19.6839 1.44129 20 2.20435 20 3V17C20 17.7957 19.6839 18.5587 19.1213 19.1213C18.5587 19.6839 17.7957 20 17 20H13C12.4477 20 12 19.5523 12 19C12 18.4477 12.4477 18 13 18H17C17.2652 18 17.5196 17.8946 17.7071 17.7071C17.8946 17.5196 18 17.2652 18 17V3C18 2.73478 17.8946 2.48043 17.7071 2.29289C17.5196 2.10536 17.2652 2 17 2H13C12.4477 2 12 1.55228 12 1ZM7.29289 4.29289C7.68342 3.90237 8.3166 3.90237 8.7071 4.29289L13.7071 9.2929C14.0976 9.6834 14.0976 10.3166 13.7071 10.7071L8.7071 15.7071C8.3166 16.0976 7.68342 16.0976 7.29289 15.7071C6.90237 15.3166 6.90237 14.6834 7.29289 14.2929L10.5858 11H1C0.44772 11 0 10.5523 0 10C0 9.4477 0.44772 9 1 9H10.5858L7.29289 5.70711C6.90237 5.31658 6.90237 4.68342 7.29289 4.29289Z" fill="black"/>
</svg>
