<?xml version="1.0" encoding="UTF-8"?>
<svg id="a" data-name="Object (копия)" xmlns="http://www.w3.org/2000/svg" viewBox="0 0 600 457.43">
  <defs>
    <style>
      .b {
        fill: #4e4f51;
      }

      .c {
        fill: #404042;
      }

      .d {
        fill: #495e74;
      }

      .e {
        fill: #dddbd0;
      }

      .f {
        fill: #cd8968;
      }

      .g {
        fill: #f0ede2;
      }

      .h {
        fill: #3b4057;
      }

      .i {
        fill: #895449;
      }
    </style>
  </defs>
  <path class="g" d="M568.49,0H30.69C13.74,0,0,13.74,0,30.69V423.45c0,16.95,13.74,30.69,30.69,30.69H568.49c16.95,0,30.69-13.74,30.69-30.69V30.69c0-16.95-13.74-30.69-30.69-30.69Z"/>
  <path class="e" d="M546.78,435.99c15.53,0,28.12-12.59,28.12-28.12V48.02c0-15.53-12.59-28.12-28.12-28.12h-246.37V435.99h246.37Z"/>
  <path class="d" d="M288.28,343.5l-61.35-72.63c-7.92-9.38-27.73-9.38-35.65,0L9.59,416.13c-7.92,9.38,1.98,21.11,17.83,21.11H301.2v-78.43l-12.93-15.31Z"/>
  <path class="h" d="M592.03,407.9l-111.59-201.94c-11.01-13.04-38.55-13.04-49.57,0l-85.29,100.97-44.1,52.21-.03-.04-.25-.29v78.43h269.32c22.03,0,32.53-16.3,21.51-29.34Z"/>
  <g>
    <path class="f" d="M118.42,172.13c0,23.49,19.05,42.54,42.54,42.54v-85.08c-23.49,0-42.54,19.05-42.54,42.54Z"/>
    <path class="i" d="M160.97,129.59v85.08c23.49,0,42.54-19.05,42.54-42.54s-19.05-42.54-42.54-42.54Z"/>
  </g>
  <path class="b" d="M54.04,435.99c-15.53,0-28.12-12.59-28.12-28.12V48.02c0-15.53,12.59-28.12,28.12-28.12h246.37V3.29H31.51C14.56,3.29,.82,17.03,.82,33.98V426.73c0,16.95,13.74,30.69,30.69,30.69H300.41v-21.43H54.04Z"/>
  <path class="c" d="M569.31,3.29H300.41V19.9h246.37c15.53,0,28.12,12.59,28.12,28.12V407.87c0,15.53-12.59,28.12-28.12,28.12h-246.37v21.43h268.9c16.95,0,30.69-13.74,30.69-30.69V33.98c0-16.95-13.74-30.69-30.69-30.69Z"/>
</svg>